<svg width="45" height="45" viewBox="0 0 45 45" fill="none" xmlns="http://www.w3.org/2000/svg">
<path d="M34.2869 2.28906C34.7961 2.28906 35.2088 2.70184 35.2088 3.21104L35.2088 8.74288C35.2088 9.25207 34.796 9.66485 34.2869 9.66485L11.2375 9.66485C10.7283 9.66485 10.3155 9.25207 10.3155 8.74288L10.3155 3.21104C10.3155 2.70184 10.7283 2.28906 11.2375 2.28906L34.2869 2.28906Z" fill="#1473E3"/>
<path d="M11.7448 2.65193C11.3847 2.29188 10.801 2.29188 10.4409 2.65193L6.52933 6.56354C6.16927 6.92359 6.16927 7.50735 6.52933 7.86741L22.2548 23.5929C22.6149 23.953 23.1987 23.953 23.5587 23.5929L27.4703 19.6813C27.8304 19.3213 27.8304 18.7375 27.4703 18.3774L11.7448 2.65193Z" fill="#43A3FF"/>
<g filter="url(#filter0_d_403_1384)">
<path d="M33.7796 2.66973C34.1382 2.30123 34.7288 2.29717 35.0924 2.66072L39.0039 6.57221C39.3604 6.92877 39.3644 7.50564 39.0128 7.86707L23.7303 23.5747C23.3718 23.9432 22.7811 23.9472 22.4176 23.5837L18.5061 19.6722C18.1495 19.3156 18.1456 18.7388 18.4972 18.3773L33.7796 2.66973Z" fill="#0F89FF"/>
</g>
<path fill-rule="evenodd" clip-rule="evenodd" d="M34.5248 3.05639C34.7056 3.23559 34.7069 3.52747 34.5277 3.70831L25.1063 13.2162C24.9271 13.397 24.6352 13.3983 24.4544 13.2191C24.2735 13.0399 24.2722 12.7481 24.4514 12.5672L33.8728 3.05936C34.052 2.87852 34.3439 2.87718 34.5248 3.05639Z" fill="#3D96FF"/>
<path d="M39 23.5C39 32.6127 31.6127 40 22.5 40C13.3873 40 6 32.6127 6 23.5C6 14.3873 13.3873 7 22.5 7C31.6127 7 39 14.3873 39 23.5Z" fill="#EBBA3D"/>
<g filter="url(#filter1_d_403_1384)">
<path d="M34.7222 23.5001C34.7222 30.2502 29.2502 35.7223 22.5 35.7223C15.7499 35.7223 10.2778 30.2502 10.2778 23.5001C10.2778 16.7499 15.7499 11.2778 22.5 11.2778C29.2502 11.2778 34.7222 16.7499 34.7222 23.5001Z" fill="url(#paint0_linear_403_1384)"/>
</g>
<path d="M24.8018 29.9351H22.2874V20.2429L19.2858 21.1738V19.1293L24.5321 17.25H24.8018V29.9351Z" fill="white"/>
<path fill-rule="evenodd" clip-rule="evenodd" d="M26.2867 29.9346C26.2867 30.7546 25.6219 31.4194 24.8019 31.4194H22.2875C21.4674 31.4194 20.8026 30.7546 20.8026 29.9346V22.2576L19.7257 22.5916C19.2751 22.7313 18.7849 22.6486 18.405 22.3687C18.0252 22.0889 17.801 21.6451 17.801 21.1733V19.1288C17.801 18.5018 18.1948 17.9423 18.7851 17.7309L24.0314 15.8516C24.1921 15.7941 24.3615 15.7646 24.5321 15.7646H24.8019C25.6219 15.7646 26.2867 16.4294 26.2867 17.2495V29.9346ZM22.2875 20.2424V29.9346H24.8019V17.2495H24.5321L19.2858 19.1288V21.1733L22.2875 20.2424Z" fill="url(#paint1_linear_403_1384)"/>
<defs>
<filter id="filter0_d_403_1384" x="16.3921" y="0.546677" width="24.7257" height="25.151" filterUnits="userSpaceOnUse" color-interpolation-filters="sRGB">
<feFlood flood-opacity="0" result="BackgroundImageFix"/>
<feColorMatrix in="SourceAlpha" type="matrix" values="0 0 0 0 0 0 0 0 0 0 0 0 0 0 0 0 0 0 127 0" result="hardAlpha"/>
<feOffset/>
<feGaussianBlur stdDeviation="0.921974"/>
<feComposite in2="hardAlpha" operator="out"/>
<feColorMatrix type="matrix" values="0 0 0 0 0 0 0 0 0 0 0 0 0 0 0 0 0 0 0.25 0"/>
<feBlend mode="normal" in2="BackgroundImageFix" result="effect1_dropShadow_403_1384"/>
<feBlend mode="normal" in="SourceGraphic" in2="effect1_dropShadow_403_1384" result="shape"/>
</filter>
<filter id="filter1_d_403_1384" x="6.50637" y="9.39212" width="31.9873" height="31.9872" filterUnits="userSpaceOnUse" color-interpolation-filters="sRGB">
<feFlood flood-opacity="0" result="BackgroundImageFix"/>
<feColorMatrix in="SourceAlpha" type="matrix" values="0 0 0 0 0 0 0 0 0 0 0 0 0 0 0 0 0 0 127 0" result="hardAlpha"/>
<feOffset dy="1.88571"/>
<feGaussianBlur stdDeviation="1.88571"/>
<feComposite in2="hardAlpha" operator="out"/>
<feColorMatrix type="matrix" values="0 0 0 0 0 0 0 0 0 0 0 0 0 0 0 0 0 0 0.25 0"/>
<feBlend mode="normal" in2="BackgroundImageFix" result="effect1_dropShadow_403_1384"/>
<feBlend mode="normal" in="SourceGraphic" in2="effect1_dropShadow_403_1384" result="shape"/>
</filter>
<linearGradient id="paint0_linear_403_1384" x1="14.4857" y1="14.0714" x2="30.0429" y2="34.3428" gradientUnits="userSpaceOnUse">
<stop stop-color="#FFE976"/>
<stop offset="1" stop-color="#FFD700"/>
</linearGradient>
<linearGradient id="paint1_linear_403_1384" x1="22.0439" y1="15.7646" x2="22.0439" y2="31.4194" gradientUnits="userSpaceOnUse">
<stop stop-color="#FFC120"/>
<stop offset="1" stop-color="#FFD874"/>
</linearGradient>
</defs>
</svg>
