<svg width="45" height="45" viewBox="0 0 45 45" fill="none" xmlns="http://www.w3.org/2000/svg">
<path d="M39 22.5C39 31.6127 31.6127 39 22.5 39C13.3873 39 6 31.6127 6 22.5C6 13.3873 13.3873 6 22.5 6C31.6127 6 39 13.3873 39 22.5Z" fill="#B3CAD1"/>
<g filter="url(#filter0_d_403_1405)">
<path d="M34.7222 22.5001C34.7222 29.2502 29.2502 34.7223 22.5 34.7223C15.7499 34.7223 10.2778 29.2502 10.2778 22.5001C10.2778 15.7499 15.7499 10.2778 22.5 10.2778C29.2502 10.2778 34.7222 15.7499 34.7222 22.5001Z" fill="url(#paint0_linear_403_1405)"/>
</g>
<path d="M27.0998 29.236H18.16V27.4624L22.3791 22.9656C22.9583 22.3326 23.3853 21.7802 23.66 21.3084C23.9407 20.8366 24.081 20.3888 24.081 19.9648C24.081 19.3855 23.9347 18.9316 23.6421 18.6032C23.3495 18.2688 22.9315 18.1016 22.388 18.1016C21.8028 18.1016 21.34 18.3046 20.9996 18.7107C20.6652 19.1108 20.4979 19.6393 20.4979 20.2962H17.9002C17.9002 19.5019 18.0883 18.7764 18.4645 18.1195C18.8467 17.4626 19.3842 16.949 20.0769 16.5787C20.7697 16.2025 21.555 16.0144 22.4328 16.0144C23.7765 16.0144 24.8186 16.3369 25.5591 16.9818C26.3055 17.6268 26.6788 18.5375 26.6788 19.7139C26.6788 20.3589 26.5116 21.0158 26.1771 21.6846C25.8427 22.3535 25.2694 23.1328 24.4573 24.0226L21.4923 27.1488H27.0998V29.236Z" fill="white"/>
<path fill-rule="evenodd" clip-rule="evenodd" d="M28.6286 29.236C28.6286 30.0803 27.9441 30.7648 27.0998 30.7648H18.16C17.3157 30.7648 16.6312 30.0803 16.6312 29.236V27.4623C16.6312 27.0737 16.7792 26.6997 17.0451 26.4163L21.2575 21.9266C21.7962 21.3373 22.1417 20.8778 22.3389 20.5391L22.3462 20.5267C22.5268 20.2232 22.5523 20.0438 22.5523 19.9647C22.5523 19.8014 22.5314 19.7058 22.5163 19.659C22.5137 19.651 22.5113 19.6443 22.5091 19.6389C22.4847 19.6347 22.4454 19.6303 22.388 19.6303C22.2737 19.6303 22.2258 19.6496 22.2162 19.6538C22.2102 19.6564 22.2061 19.6589 22.2016 19.6623C22.197 19.6658 22.1868 19.6742 22.1719 19.6919C22.1217 19.7523 22.0267 19.904 22.0267 20.2962C22.0267 21.1405 21.3423 21.825 20.498 21.825H17.9002C17.0559 21.825 16.3714 21.1405 16.3714 20.2962C16.3714 19.249 16.6226 18.2594 17.1379 17.3597L17.1431 17.3506C17.672 16.4415 18.4199 15.7319 19.3518 15.2328C20.2919 14.7233 21.3314 14.4856 22.4328 14.4856C24.0081 14.4856 25.4543 14.8644 26.5608 15.827C27.7069 16.8184 28.2076 18.1882 28.2076 19.7139C28.2076 20.6314 27.9682 21.521 27.5445 22.3683C27.1207 23.2161 26.4432 24.1145 25.5864 25.0532C25.5798 25.0604 25.5732 25.0675 25.5665 25.0746L25.0492 25.62H27.0998C27.9441 25.62 28.6286 26.3045 28.6286 27.1488V29.236ZM21.4923 27.1488L24.4573 24.0226C25.2694 23.1328 25.8427 22.3535 26.1771 21.6846C26.5116 21.0158 26.6788 20.3589 26.6788 19.7139C26.6788 18.5375 26.3055 17.6268 25.5591 16.9818C24.8186 16.3369 23.7765 16.0144 22.4328 16.0144C21.555 16.0144 20.7697 16.2025 20.0769 16.5787C19.3842 16.949 18.8467 17.4625 18.4645 18.1194C18.3448 18.3285 18.2442 18.5445 18.1625 18.7674C17.9877 19.2451 17.9002 19.7546 17.9002 20.2962H20.498C20.498 19.6393 20.6652 19.1108 20.9996 18.7107C21.34 18.3046 21.8028 18.1015 22.388 18.1015C22.9315 18.1015 23.3495 18.2687 23.6421 18.6032C23.9347 18.9316 24.081 19.3855 24.081 19.9647C24.081 20.3887 23.9407 20.8366 23.66 21.3084C23.3853 21.7802 22.9583 22.3326 22.3791 22.9656L18.16 27.4623V29.236H27.0998V27.1488H21.4923Z" fill="url(#paint1_linear_403_1405)"/>
<defs>
<filter id="filter0_d_403_1405" x="6.50637" y="8.39212" width="31.9873" height="31.9872" filterUnits="userSpaceOnUse" color-interpolation-filters="sRGB">
<feFlood flood-opacity="0" result="BackgroundImageFix"/>
<feColorMatrix in="SourceAlpha" type="matrix" values="0 0 0 0 0 0 0 0 0 0 0 0 0 0 0 0 0 0 127 0" result="hardAlpha"/>
<feOffset dy="1.88571"/>
<feGaussianBlur stdDeviation="1.88571"/>
<feComposite in2="hardAlpha" operator="out"/>
<feColorMatrix type="matrix" values="0 0 0 0 0 0 0 0 0 0 0 0 0 0 0 0 0 0 0.25 0"/>
<feBlend mode="normal" in2="BackgroundImageFix" result="effect1_dropShadow_403_1405"/>
<feBlend mode="normal" in="SourceGraphic" in2="effect1_dropShadow_403_1405" result="shape"/>
</filter>
<linearGradient id="paint0_linear_403_1405" x1="14.4857" y1="12.1286" x2="23.9143" y2="26.2714" gradientUnits="userSpaceOnUse">
<stop stop-color="#FBFEFF"/>
<stop offset="1" stop-color="#D4E3E8"/>
</linearGradient>
<linearGradient id="paint1_linear_403_1405" x1="22.5" y1="14.4856" x2="22.5" y2="30.7648" gradientUnits="userSpaceOnUse">
<stop stop-color="#81A5B0"/>
<stop offset="1" stop-color="#E5EAEC"/>
</linearGradient>
</defs>
</svg>
