<svg width="45" height="45" viewBox="0 0 45 45" fill="none" xmlns="http://www.w3.org/2000/svg">
<path d="M39 22.5C39 31.6127 31.6127 39 22.5 39C13.3873 39 6 31.6127 6 22.5C6 13.3873 13.3873 6 22.5 6C31.6127 6 39 13.3873 39 22.5Z" fill="#DAA06A"/>
<g filter="url(#filter0_d_403_1427)">
<path d="M34.7222 22.5001C34.7222 29.2502 29.2502 34.7223 22.5 34.7223C15.7499 34.7223 10.2778 29.2502 10.2778 22.5001C10.2778 15.7499 15.7499 10.2778 22.5 10.2778C29.2502 10.2778 34.7222 15.7499 34.7222 22.5001Z" fill="url(#paint0_linear_403_1427)"/>
</g>
<path d="M20.9003 21.652H22.2961C22.9607 21.652 23.4532 21.4858 23.7735 21.1535C24.0937 20.8211 24.2538 20.38 24.2538 19.8302C24.2538 19.2984 24.0937 18.8845 23.7735 18.5884C23.4592 18.2924 23.0242 18.1443 22.4683 18.1443C21.9668 18.1443 21.5468 18.2833 21.2084 18.5612C20.87 18.8332 20.7009 19.1897 20.7009 19.6308H18.0815C18.0815 18.9419 18.2657 18.3256 18.6343 17.7818C19.009 17.2319 19.5286 16.8029 20.1933 16.4947C20.864 16.1866 21.6012 16.0325 22.4048 16.0325C23.8006 16.0325 24.8943 16.3678 25.6859 17.0385C26.4775 17.7032 26.8732 18.6217 26.8732 19.7939C26.8732 20.3982 26.6889 20.9541 26.3204 21.4616C25.9518 21.9692 25.4684 22.3589 24.8702 22.6308C25.6134 22.8967 26.1663 23.2955 26.5288 23.8273C26.8974 24.359 27.0817 24.9874 27.0817 25.7125C27.0817 26.8847 26.6527 27.8243 25.7947 28.5313C24.9427 29.2383 23.8127 29.5918 22.4048 29.5918C21.0876 29.5918 20.009 29.2443 19.1691 28.5494C18.3352 27.8546 17.9183 26.9361 17.9183 25.7941H20.5377C20.5377 26.2896 20.722 26.6944 21.0906 27.0086C21.4652 27.3228 21.9245 27.4799 22.4683 27.4799C23.0907 27.4799 23.5771 27.3168 23.9275 26.9905C24.284 26.6581 24.4623 26.2201 24.4623 25.6762C24.4623 24.359 23.7372 23.7004 22.287 23.7004H20.9003V21.652Z" fill="white"/>
<path fill-rule="evenodd" clip-rule="evenodd" d="M19.4275 21.1776H18.0814C17.2271 21.1776 16.5346 20.4851 16.5346 19.6308C16.5346 18.6484 16.803 17.7267 17.3539 16.9139L17.356 16.9108C17.9035 16.1071 18.6509 15.5048 19.5426 15.0913L19.5475 15.0891C20.4382 14.6798 21.3983 14.4856 22.4048 14.4856C24.0385 14.4856 25.5289 14.8794 26.6833 15.8561C27.8724 16.856 28.4201 18.2345 28.4201 19.7939C28.4201 20.7377 28.1247 21.6095 27.572 22.3706C27.5362 22.4198 27.4997 22.4683 27.4625 22.516C27.5842 22.6519 27.6981 22.7968 27.8034 22.9508C28.3704 23.771 28.6286 24.7139 28.6286 25.7125C28.6286 27.317 28.0154 28.7048 26.7805 29.7233C25.5828 30.7163 24.0724 31.1386 22.4048 31.1386C20.8055 31.1386 19.3549 30.7108 18.183 29.7413L18.1788 29.7378C16.9717 28.7319 16.3714 27.3677 16.3714 25.7941C16.3714 24.9398 17.064 24.2472 17.9183 24.2472H19.4528C19.3886 24.0772 19.3534 23.8929 19.3534 23.7004V21.652C19.3534 21.4865 19.3794 21.3271 19.4275 21.1776ZM21.9851 25.2472C22.0494 25.4172 22.0846 25.6015 22.0846 25.7941C22.0846 25.807 22.0851 25.8169 22.0858 25.824C22.087 25.8252 22.0884 25.8265 22.09 25.8278C22.1544 25.8804 22.2505 25.933 22.4683 25.933C22.6467 25.933 22.753 25.9094 22.808 25.891C22.8538 25.8756 22.8689 25.8626 22.8728 25.859M21.9851 25.2472H22.287C22.6715 25.2472 22.8281 25.3133 22.8709 25.3362C22.8719 25.3386 22.873 25.3414 22.8742 25.3447C22.8886 25.3841 22.9154 25.4848 22.9154 25.6762C22.9154 25.7779 22.8992 25.8214 22.8958 25.8297C22.8937 25.8348 22.8922 25.8373 22.8907 25.8394C22.8892 25.8415 22.8841 25.8484 22.8728 25.859M25.7947 28.5313C26.6527 27.8243 27.0817 26.8847 27.0817 25.7125C27.0817 24.9874 26.8974 24.359 26.5288 23.8272C26.4691 23.7397 26.4043 23.6558 26.3343 23.5754C25.9791 23.1678 25.491 22.8529 24.8702 22.6308C25.4297 22.3765 25.8887 22.0191 26.2474 21.5586C26.2722 21.5268 26.2965 21.4945 26.3204 21.4616C26.6889 20.9541 26.8732 20.3981 26.8732 19.7939C26.8732 18.6217 26.4775 17.7032 25.6859 17.0385C24.8943 16.3678 23.8006 16.0325 22.4048 16.0325C21.6012 16.0325 20.864 16.1865 20.1933 16.4947C19.5286 16.8029 19.009 17.2319 18.6343 17.7818C18.5677 17.8801 18.5071 17.9808 18.4525 18.0839C18.2051 18.5509 18.0814 19.0665 18.0814 19.6308H20.7009C20.7009 19.1897 20.87 18.8332 21.2084 18.5612C21.5468 18.2833 21.9668 18.1443 22.4683 18.1443C23.0242 18.1443 23.4592 18.2923 23.7735 18.5884C24.0937 18.8845 24.2538 19.2984 24.2538 19.8302C24.2538 20.38 24.0937 20.8211 23.7735 21.1535C23.4532 21.4858 22.9607 21.652 22.2961 21.652H20.9003V23.7004H22.287C23.7372 23.7004 24.4623 24.359 24.4623 25.6762C24.4623 26.2201 24.284 26.6581 23.9275 26.9905C23.5771 27.3168 23.0907 27.4799 22.4683 27.4799C21.9245 27.4799 21.4652 27.3228 21.0906 27.0086C20.722 26.6944 20.5377 26.2896 20.5377 25.7941H17.9183C17.9183 26.3657 18.0228 26.8813 18.2317 27.3409C18.4401 27.7995 18.7526 28.2024 19.1691 28.5494C20.009 29.2443 21.0876 29.5918 22.4048 29.5918C23.8127 29.5918 24.9427 29.2383 25.7947 28.5313ZM22.1736 20.1051C22.2127 19.9839 22.2371 19.8561 22.245 19.7239C22.2859 19.707 22.3535 19.6912 22.4683 19.6912C22.5916 19.6912 22.6641 19.7055 22.6993 19.7154C22.7032 19.7397 22.707 19.777 22.707 19.8302C22.707 19.9554 22.6888 20.0205 22.6797 20.0455C22.6776 20.0515 22.6756 20.0562 22.6737 20.0602C22.6723 20.0606 22.6709 20.0611 22.6694 20.0617C22.6198 20.0784 22.5048 20.1051 22.2961 20.1051H22.1736Z" fill="url(#paint1_linear_403_1427)"/>
<defs>
<filter id="filter0_d_403_1427" x="6.50637" y="8.39212" width="31.9873" height="31.9872" filterUnits="userSpaceOnUse" color-interpolation-filters="sRGB">
<feFlood flood-opacity="0" result="BackgroundImageFix"/>
<feColorMatrix in="SourceAlpha" type="matrix" values="0 0 0 0 0 0 0 0 0 0 0 0 0 0 0 0 0 0 127 0" result="hardAlpha"/>
<feOffset dy="1.88571"/>
<feGaussianBlur stdDeviation="1.88571"/>
<feComposite in2="hardAlpha" operator="out"/>
<feColorMatrix type="matrix" values="0 0 0 0 0 0 0 0 0 0 0 0 0 0 0 0 0 0 0.25 0"/>
<feBlend mode="normal" in2="BackgroundImageFix" result="effect1_dropShadow_403_1427"/>
<feBlend mode="normal" in="SourceGraphic" in2="effect1_dropShadow_403_1427" result="shape"/>
</filter>
<linearGradient id="paint0_linear_403_1427" x1="14.4857" y1="12.1286" x2="23.9143" y2="26.2714" gradientUnits="userSpaceOnUse">
<stop stop-color="#FFF0E3"/>
<stop offset="1" stop-color="#F7BA82"/>
</linearGradient>
<linearGradient id="paint1_linear_403_1427" x1="22.5" y1="14.4856" x2="22.5" y2="31.1386" gradientUnits="userSpaceOnUse">
<stop stop-color="#C28044"/>
<stop offset="1" stop-color="#FBCEA5"/>
</linearGradient>
</defs>
</svg>
